<svg width="312" height="37" viewBox="0 0 312 37" fill="none" xmlns="http://www.w3.org/2000/svg">
<g clip-path="url(#clip0)">
<path d="M18.9 6.3V24L12.4 35.9V6.3H0V0.7H31.4V6.3H18.9Z" fill="white"/>
<path d="M101.2 35.9L82.3 9.3V35.9H75.8V0.7H84.1L101.5 25.6V0.7H108V35.8H101.2V35.9Z" fill="white"/>
<path d="M119.3 35.9V0.7H125.9V35.8H119.3V35.9Z" fill="white"/>
<path d="M137.1 35.9V0.7H160.8V6.2H143.6V15.5H159.2V21H143.6V30.3H160.8V35.8H137.1V35.9Z" fill="white"/>
<path d="M195.2 0.7H202.1L187.6 35.8H181L166.8 0.7H173.8L184.5 28L195.2 0.7Z" fill="white"/>
<path d="M39.7 35.9H32.8L47.3 0.7H53.9L68.2 35.8H61.2L50.4 8.5L39.7 35.9Z" fill="white"/>
<path d="M228.4 10.7C228 8.5 226 5.3 220.9 5.3C217 5.3 214.3 7.7 214.3 10.4C214.3 12.6 215.8 14.3 218.8 14.9L224.3 15.9C231.1 17.1 234.7 21.1 234.7 26C234.7 31.4 229.9 36.7 221.1 36.7C211.4 36.7 206.9 31 206.3 25.9L212.4 24.3C212.8 28 215.6 31.3 221.2 31.3C225.8 31.3 228.2 29.2 228.2 26.4C228.2 24.1 226.4 22.3 223.1 21.6L217.7 20.6C211.9 19.5 208 16 208 10.7C208 4.8 213.9 -0.1 221 -0.1C230 -0.1 233.5 5 234.4 8.9L228.4 10.7Z" fill="white"/>
<path d="M255.1 20.7L250 25.8V35.9H243.5V0.7H250V17.5L266.5 0.7H275L259.5 16.2L275.2 35.8H267L255.1 20.7Z" fill="white"/>
<path d="M278.6 0.7H286.3L295.5 15.4L304.7 0.7H312L298.5 21V35.9H292V21L278.6 0.7Z" fill="white"/>
</g>
<defs>
<clipPath id="clip0">
<rect width="312" height="36.6" fill="white"/>
</clipPath>
</defs>
</svg>
