<svg width="25" height="31" viewBox="0 0 25 31" fill="none" xmlns="http://www.w3.org/2000/svg">
<path d="M0.199951 10.1C0.199951 4.7 1.99995 1.9 5.49995 1C6.59995 0.7 7.29995 1 7.69995 2.1C8.29995 4 8.99995 5.8 9.59995 7.7C9.99995 8.8 9.69995 9.6 8.49995 9.9C4.89995 10.9 5.19995 13 6.29995 15.3C7.39995 17.4 8.59995 19.5 10.1 21.4C11.7 23.4 13 23.4 15 21.8C16.5 20.6 16.8 20.6 18.1 22C19.3 23.4 20.5 24.7 21.7999 26.1C22.5999 27 22.5 27.7 21.7 28.6C19.7 30.7 17.4 31.2 14.7 30.4C13.8 30.1 12.8 29.8 12.1 29.3C4.79995 24.5 1.09995 17.5 0.199951 10.1Z" fill="black"/>
<path d="M24.3999 16.9C24.3999 17.4 24.4999 18 24.3999 18.5C24.2999 19 23.7999 19.3 23.5999 19.7C23.2999 19.3 22.8999 18.9 22.7999 18.4C22.4999 16.7 22.5999 14.9 22.0999 13.2C21.0999 9.5 18.5999 6.9 15.0999 5.3C14.5999 5.1 14.1999 4.8 13.8999 4.4C13.7999 4.3 13.9999 3.6 14.0999 3.5C14.5999 3.4 15.0999 3.3 15.5999 3.4C20.1999 5.3 22.9999 8.7 24.0999 13.5C24.3999 14.6 24.3999 15.7 24.4999 16.8C24.3999 16.9 24.3999 16.9 24.3999 16.9Z" fill="black"/>
<path d="M19.4999 16.6C19.4999 16.8 19.5999 17 19.4999 17.2C19.1999 17.6 18.7999 18 18.4999 18.5C18.1999 18.1 17.7999 17.7 17.5999 17.2C17.0999 15.8 16.9999 14.2 16.2999 12.9C15.6999 11.8 14.3999 11.2 13.4999 10.3C13.0999 9.9 12.9999 9.3 12.7999 8.8C13.2999 8.7 13.9999 8.4 14.3999 8.7C17.5999 10.3 19.2999 13 19.4999 16.6Z" fill="black"/>
</svg>
