<svg width="33" height="33" viewBox="0 0 33 33" fill="none" xmlns="http://www.w3.org/2000/svg">
<path d="M32.8664 16.1C32.8664 24.5 26.3568 31.4 18.1446 32.1C17.6439 32.2 17.2433 32.2 16.7425 32.2C15.5408 32.2 14.339 32.1 13.2373 31.8C6.02666 30.2 0.618652 23.8 0.618652 16.1C0.618652 7.2 7.82933 0 16.7425 0C25.6557 0 32.8664 7.2 32.8664 16.1Z" fill="white"/>
<path d="M18.5452 12.7C18.7455 12.4 19.2462 12.2 20.0474 12.2C20.7485 12.2 21.5497 12.3 22.2507 12.5L22.8516 9.1C21.5497 8.7 20.2477 8.5 18.8456 8.5C17.4436 8.5 16.3419 8.7 15.5408 9.2C14.6394 9.7 14.0385 10.2 13.7381 11C13.4376 11.7 13.2373 12.9 13.2373 14.4V15.7H10.6335V19.6H13.3375V31.7C14.4391 31.9 15.6409 32.1 16.8427 32.1C17.3434 32.1 17.744 32.1 18.2448 32V19.7H21.6498V15.8H18.1446V14.6C18.1446 13.6 18.2448 13.1 18.5452 12.7Z" fill="#252220"/>
</svg>
